<svg viewBox="-223 -185.3 630 505.3" width="630" height="505.3" version="1.1" baseProfile="full" xmlns="http://www.w3.org/2000/svg" class="js-draw--autoresize"><style id="js-draw-style-sheet">path{stroke-linecap:round;stroke-linejoin:round;}text{white-space:pre;}</style><g class="js-draw-image-background js-draw-image-background-grid js-draw-image-background-grid-25"><path d="M407,320l0-505.3l-630,0l0,505.3l630,0" fill="#000000"></path><path d="M-223.35,-175l630.7,0m-630.7,25l630.7,0m-630.7,25l630.7,0m-630.7,25l630.7,0m-630.7,25l630.7,0m-630.7,25l630.7,0m-630.7,25l630.7,0m-630.7,25l630.7,0m-630.7,25l630.7,0m-630.7,25l630.7,0m-630.7,25l630.7,0m-630.7,25l630.7,0m-630.7,25l630.7,0m-630.7,25l630.7,0m-630.7,25l630.7,0m-630.7,25l630.7,0m-630.7,25l630.7,0m-630.7,25l630.7,0m-630.7,25l630.7,0m-630.7,25l630.7,0m-607.35-485.65l0,506m25-506l0,506m25-506l0,506m25-506l0,506m25-506l0,506m25-506l0,506m25-506l0,506m25-506l0,506m25-506l0,506m25-506l0,506m25-506l0,506m25-506l0,506m25-506l0,506m25-506l0,506m25-506l0,506m25-506l0,506m25-506l0,506m25-506l0,506m25-506l0,506m25-506l0,506m25-506l0,506m25-506l0,506m25-506l0,506m25-506l0,506m25-506l0,506" fill="none" stroke="#ffffff33" stroke-width=".7"></path></g><path d="M-221,78q311,0 566,0q-4,0 -10,0q0,0 46,0q13,0 24,0q-1,0 -3,0" fill="none" stroke="#0000ff" stroke-width="4"></path><path d="M60,-152q0,259 0,470" fill="none" stroke="#0000ff" stroke-width="4"></path><path d="M-106,-97q0,3 0,6q2,96 84,145q84,47 168,0q82-49 84-145" fill="none" stroke="#cc6633" stroke-width="2"></path><path d="M230,-91q0-5 0-9" fill="none" stroke="#cc6633" stroke-width="2"></path><path d="M-124.2,253.5q22.9-21.6 70.2-57.7q30.6-23.2 68.7-59.3q1.9-1.8 45.2-56.8q8-10.1 47.2-48.4q.2-.1 40.4-47.6q39.1-48.1 70.7-87.8q25-30.4 45.6-55.2q2.9-3.2 5.3-5.7q5.8-7.2 10.2-13.2q3-3.5 5.6-6.3" fill="none" stroke="#33cc82" stroke-width="1.6"></path><path d="M103,138.3q17,.2 17.5,.1" fill="none" stroke="#33cc82" stroke-width="10.2"></path><text data-highp-transform="matrix(0.6951003408026384,0,0,0.6951003408026384,131.4,142.4)" style="transform: matrix(0.6951, 0, 0, 0.6951, 131.4, 142.4); font-family: sans-serif; font-size: 32px; fill: rgb(51, 204, 130);">Derivada</text><path d="M100.7,164.2q12.4,.4 22.5,.8" fill="none" stroke="#cc6633" stroke-width="8"></path><text data-highp-transform="matrix(0.6286455810526107,0,0,0.6286455810526107,133.2375,171.27500000000006)" style="transform: matrix(0.628646, 0, 0, 0.628646, 133.238, 171.275); font-family: sans-serif; font-size: 32px; fill: rgb(204, 102, 51);">Função convexa</text></svg>