<svg viewBox="-196 -239 522 479" width="522" height="479" version="1.1" baseProfile="full" xmlns="http://www.w3.org/2000/svg" class="js-draw--autoresize"><style id="js-draw-style-sheet">path{stroke-linecap:round;stroke-linejoin:round;}text{white-space:pre;}</style><g class="js-draw-image-background js-draw-image-background-grid js-draw-image-background-grid-25"><path d="M326,240l0-479l-522,0l0,479l522,0" fill="#000000"></path><path d="M-196.35,-225l522.7,0m-522.7,25l522.7,0m-522.7,25l522.7,0m-522.7,25l522.7,0m-522.7,25l522.7,0m-522.7,25l522.7,0m-522.7,25l522.7,0m-522.7,25l522.7,0m-522.7,25l522.7,0m-522.7,25l522.7,0m-522.7,25l522.7,0m-522.7,25l522.7,0m-522.7,25l522.7,0m-522.7,25l522.7,0m-522.7,25l522.7,0m-522.7,25l522.7,0m-522.7,25l522.7,0m-522.7,25l522.7,0m-522.7,25l522.7,0m-501.35-464.35l0,479.7m25-479.7l0,479.7m25-479.7l0,479.7m25-479.7l0,479.7m25-479.7l0,479.7m25-479.7l0,479.7m25-479.7l0,479.7m25-479.7l0,479.7m25-479.7l0,479.7m25-479.7l0,479.7m25-479.7l0,479.7m25-479.7l0,479.7m25-479.7l0,479.7m25-479.7l0,479.7m25-479.7l0,479.7m25-479.7l0,479.7m25-479.7l0,479.7m25-479.7l0,479.7m25-479.7l0,479.7m25-479.7l0,479.7m25-479.7l0,479.7" fill="none" stroke="#ffffff33" stroke-width=".7"></path></g><path d="M-152,-229l0,356l7,0l1-356l7,0l-11-10l-11,10l7,0" fill="#ff0026"></path><path d="M315,75l-511,0l0,8l511,0l0,7l11-11l-11-11l0,7" fill="#ff0026"></path><path d="M-118,-209q30,117 40,136q35,66 36,68q27,43 51,57q14,9 30-4q16-13 35-49q15-27 28-50q11-24 18-44q4-11 20-15q8-3 20,17q24,38 45,67q8,11 13,12q27,0 36-17q12-25 15-40q4-22 17-79q10-36 18-66q0,0 0,0" fill="none" stroke="#0000ff" stroke-width="4"></path><path d="M21,76l0,95l7,0l0-95l7,0l-11-11l-11,11l8,0" fill="#ffee00"></path><path d="M231,10L232,175L239,175L239,10L246,10L235,-1L224,10L231,10" fill="#ffee00"></path><text data-highp-transform="matrix(1,0,0,1,-31,201)" style="transform: matrix(1, 0, 0, 1, -31, 201); font-family: sans-serif; font-size: 32px; fill: rgb(0, 0, 255);">Mínimo<tspan x="0" y="32" style="fill: rgb(0, 0, 255);">global</tspan></text><text data-highp-transform="matrix(1,0,0,1,194,206)" style="transform: matrix(1, 0, 0, 1, 194, 206); font-family: sans-serif; font-size: 32px; fill: rgb(0, 0, 255);">Mínimo<tspan x="0" y="32" style="fill: rgb(0, 0, 255);">local</tspan></text><path d="M29,57q0-4 -3-5q-3-2 -6,0q-3,1 -3,5q0,4 3,5q3,2 6,0q3-1 3-5" fill="none" stroke="#cc6633" stroke-width="2"></path><path d="M245,-12q0-6 -5-9q-4-3 -9,0q-5,3 -5,8q0,6 5,9q5,3 9,0q5-3 5-8" fill="none" stroke="#cc6633" stroke-width="2"></path></svg>